<?xml version="1.0" encoding="UTF-8" standalone="no"?>
<!-- Generator: Adobe Illustrator 27.5.0, SVG Export Plug-In . SVG Version: 6.00 Build 0)  -->

<svg
   version="1.1"
   x="0px"
   y="0px"
   viewBox="0 0 500 500"
   style="enable-background:new 0 0 500 500;"
   xml:space="preserve"
   id="svg66"
   xmlns="http://www.w3.org/2000/svg"
   xmlns:svg="http://www.w3.org/2000/svg"><defs
   id="defs66" />

<g
   id="OBJECTS"
   transform="translate(1.1198208,-8.3986562)">
	<g
   id="g20">
		<path
   style="fill:#ffffff;stroke:#000000;stroke-width:2;stroke-linecap:round;stroke-linejoin:round;stroke-miterlimit:10"
   d="m 259.825,399.306 c -65.553,-0.941 -145.717,8.499 -192.051,25.277 -19.432,7.036 -30.034,20.697 -12.695,27.83 16.324,6.716 34.465,-2.269 50.961,2.33 24.04,6.703 33.729,20.012 70.791,24.959 26.052,3.477 133.476,2.481 164.191,-7.941 38.352,-13.014 43.242,-13.854 84.043,-10.404 9.027,0.763 22.438,-6.228 19.706,-14.866 -9.915,-31.348 -135.029,-46.352 -184.946,-47.185 z"
   id="path1" />
		<g
   id="g7">
			<g
   id="g6">
				<g
   id="g3">
					
						<path
   style="fill:#ffffff;stroke:#000000;stroke-width:2;stroke-linecap:round;stroke-linejoin:round;stroke-miterlimit:10"
   d="m 366.835,386.651 c -2.817,-8.313 -3.869,-17.442 -3.034,-26.334 0.348,-3.709 2.068,-8.353 5.227,-7.929 3.221,0.432 3.934,5.5 3.79,9.301 0.747,-8.756 2.646,-17.375 5.609,-25.459 0.938,-2.56 2.194,-5.298 4.435,-6.222 1.732,-0.714 3.811,-0.055 5.001,1.585 1.19,1.64 1.413,4.154 0.536,6.047 2.885,-9.78 9.887,-17.755 18.304,-20.847 1.088,-0.4 2.302,-0.714 3.339,-0.156 1.433,0.77 1.945,2.979 1.553,4.769 -0.392,1.791 -1.458,3.255 -2.492,4.651 6.184,-4.496 13.49,-6.836 20.763,-6.653 3.16,0.08 7.02,1.348 7.657,4.981 0.609,3.47 -2.195,6.359 -4.742,8.261 -7.459,5.572 -15.487,10.094 -23.857,13.437 2.002,-0.766 4.081,-1.542 6.172,-1.26 2.092,0.281 4.207,1.931 4.561,4.366 0.586,4.029 -3.444,6.628 -6.749,7.914 -7.495,2.917 -14.991,5.835 -22.486,8.752 1.831,-0.489 3.726,-0.979 5.569,-0.559 1.843,0.42 3.631,2.005 3.88,4.189 0.259,2.272 -1.223,4.399 -2.981,5.396 -1.759,0.997 -3.762,1.151 -5.694,1.484 -8.587,1.478 -16.63,6.938 -22.004,14.935 -0.732,-1.549 -1.768,-2.91 -2.357,-4.649 z"
   id="path2" />
					<path
   style="fill:none;stroke:#000000;stroke-width:2;stroke-linecap:round;stroke-linejoin:round;stroke-miterlimit:10"
   d="m 404.882,335.191 c -15.456,11.804 -27.88,28.999 -35.277,48.822"
   id="path3" />
				</g>
				
					<path
   style="fill:#ffffff;stroke:#000000;stroke-width:2;stroke-linecap:round;stroke-linejoin:round;stroke-miterlimit:10"
   d="m 343.561,421.674 c -0.464,-9.451 0.23,-32.393 9.723,-40.959 7.157,-6.459 33.356,3.888 35.489,16.661 1.043,6.247 -4.749,21.338 -12.302,30.425 -11.536,-0.542 -20.729,-0.655 -32.91,-6.127 z"
   id="path4" />
				<path
   style="fill:none;stroke:#000000;stroke-width:2;stroke-linecap:round;stroke-linejoin:round;stroke-miterlimit:10"
   d="m 387.281,404.648 c -4.058,-7.13 -10.572,-12.272 -17.729,-13.994"
   id="path5" />
				<path
   style="fill:none;stroke:#000000;stroke-width:2;stroke-linecap:round;stroke-linejoin:round;stroke-miterlimit:10"
   d="m 360.558,411.328 c -4.863,-2.401 -10.29,-3.206 -15.509,-2.301"
   id="path6" />
			</g>
			<path
   style="fill:#ffffff;stroke:#000000;stroke-width:2;stroke-linecap:round;stroke-linejoin:round;stroke-miterlimit:10"
   d="m 332.609,423.149 c 2.75,-3.194 6.652,-4.975 10.519,-4.802 3.867,0.173 7.641,2.299 10.176,5.729 5.053,-4.675 13.259,-3.582 17.29,2.304 3.103,-2.646 7.35,-3.331 10.946,-1.764 3.596,1.566 6.434,5.337 7.314,9.719"
   id="path7" />
		</g>
		<g
   id="g13">
			<g
   id="g12">
				<g
   id="g9">
					
						<path
   style="fill:#ffffff;stroke:#000000;stroke-width:2;stroke-linecap:round;stroke-linejoin:round;stroke-miterlimit:10"
   d="m 101.498,394.458 c 4.996,-7.145 8.488,-15.594 10.073,-24.376 0.661,-3.663 0.236,-8.629 -2.964,-9.158 -3.262,-0.539 -5.326,4.115 -6.212,7.804 1.635,-8.625 2.107,-17.459 1.397,-26.094 -0.225,-2.734 -0.712,-5.735 -2.65,-7.284 -1.498,-1.198 -3.707,-1.181 -5.312,0.041 -1.605,1.222 -2.502,3.569 -2.156,5.645 -0.176,-10.241 -4.86,-19.967 -12.245,-25.426 -0.955,-0.706 -2.055,-1.366 -3.218,-1.139 -1.607,0.314 -2.704,2.283 -2.804,4.118 -0.101,1.835 0.545,3.556 1.177,5.201 -4.825,-6.145 -11.328,-10.555 -18.479,-12.531 -3.108,-0.859 -7.219,-0.785 -8.822,2.514 -1.531,3.15 0.427,6.753 2.4,9.332 5.779,7.556 12.397,14.272 19.668,19.958 -1.748,-1.328 -3.568,-2.688 -5.687,-3.037 -2.119,-0.349 -4.629,0.608 -5.633,2.84 -1.66,3.693 1.573,7.38 4.454,9.594 6.532,5.019 13.063,10.037 19.594,15.056 -1.656,-1.011 -3.374,-2.042 -5.287,-2.185 -1.913,-0.142 -4.088,0.85 -4.92,2.872 -0.866,2.104 0.006,4.584 1.454,6.061 1.448,1.477 3.363,2.219 5.16,3.11 7.986,3.961 14.366,11.581 17.454,20.848 1.134,-1.269 2.513,-2.268 3.558,-3.764 z"
   id="path8" />
					<path
   style="fill:none;stroke:#000000;stroke-width:2;stroke-linecap:round;stroke-linejoin:round;stroke-miterlimit:10"
   d="m 78.24,333.807 c 11.905,15.904 19.395,36.085 21.266,57.299"
   id="path9" />
				</g>
				
					<path
   style="fill:#ffffff;stroke:#000000;stroke-width:2;stroke-linecap:round;stroke-linejoin:round;stroke-miterlimit:10"
   d="m 126.53,424.166 c 1.439,-8.196 3.113,-28.331 -5.495,-37.066 -6.49,-6.586 -33.753,-0.995 -37.204,9.883 -1.688,5.321 3.359,23.063 9.973,31.997 11.591,1.046 19.983,-1.637 32.726,-4.814 z"
   id="path10" />
				<path
   style="fill:none;stroke:#000000;stroke-width:2;stroke-linecap:round;stroke-linejoin:round;stroke-miterlimit:10"
   d="m 84.572,403.533 c 4.793,-5.695 11.837,-9.329 19.171,-9.892"
   id="path11" />
				<path
   style="fill:none;stroke:#000000;stroke-width:2;stroke-linecap:round;stroke-linejoin:round;stroke-miterlimit:10"
   d="m 110.603,412.889 c 5.11,-1.457 10.619,-1.446 15.745,0.032"
   id="path12" />
			</g>
			<path
   style="fill:#ffffff;stroke:#000000;stroke-width:2;stroke-linecap:round;stroke-linejoin:round;stroke-miterlimit:10"
   d="m 138.286,423.221 c -2.959,-2.625 -6.989,-3.931 -10.862,-3.521 -3.874,0.41 -7.535,2.529 -9.871,5.713 -5.363,-3.774 -13.54,-2.266 -17.228,3.175 -3.28,-2.12 -7.588,-2.439 -11.105,-0.823 -3.516,1.616 -6.135,5.12 -6.75,9.03"
   id="path13" />
		</g>
		<g
   id="g19">
			<path
   style="fill:#ffffff;stroke:#000000;stroke-width:2;stroke-linecap:round;stroke-linejoin:round;stroke-miterlimit:10"
   d="m 210.202,466.425 c -1.231,-0.694 -2.526,-1.451 -3.195,-2.696 -0.669,-1.245 -0.373,-3.116 0.945,-3.627 0.834,-0.324 1.808,-0.003 2.491,0.574 0.683,0.578 1.136,1.376 1.574,2.156 -0.418,-1.048 -0.843,-2.137 -0.787,-3.263 0.056,-1.127 0.732,-2.306 1.829,-2.57 1.113,-0.268 2.266,0.503 2.817,1.506 0.551,1.003 0.639,2.187 0.716,3.329 0.309,-0.858 0.628,-1.734 1.21,-2.436 0.582,-0.702 1.488,-1.206 2.387,-1.061 1.285,0.208 2.052,1.668 1.957,2.966 -0.095,1.298 -0.815,2.455 -1.514,3.553"
   id="path14" />
			<path
   style="fill:#ffffff;stroke:#000000;stroke-width:2;stroke-linecap:round;stroke-linejoin:round;stroke-miterlimit:10"
   d="m 310.144,417.598 c -1.033,-0.965 -2.113,-2.005 -2.469,-3.373 -0.357,-1.368 0.372,-3.116 1.774,-3.302 0.887,-0.118 1.758,0.423 2.285,1.146 0.528,0.723 0.779,1.604 1.021,2.466 -0.159,-1.117 -0.315,-2.275 0.005,-3.357 0.32,-1.082 1.256,-2.069 2.384,-2.066 1.145,0.002 2.083,1.023 2.382,2.128 0.299,1.105 0.106,2.276 -0.089,3.404 0.502,-0.761 1.02,-1.537 1.75,-2.082 0.731,-0.545 1.73,-0.821 2.57,-0.468 1.199,0.505 1.601,2.105 1.203,3.344 -0.398,1.239 -1.371,2.194 -2.309,3.096"
   id="path15" />
			<path
   style="fill:#ffffff;stroke:#000000;stroke-width:2;stroke-linecap:round;stroke-linejoin:round;stroke-miterlimit:10"
   d="m 307.104,455.405 c -0.268,-1.076 -1.117,-1.886 -1.758,-2.789 -0.641,-0.902 -1.08,-2.165 -0.469,-3.088 0.682,-1.03 2.32,-0.946 3.266,-0.155 0.946,0.791 1.374,2.03 1.761,3.206 0.033,-0.95 0.072,-1.923 0.435,-2.8 0.364,-0.877 1.128,-1.65 2.068,-1.738 1.139,-0.108 2.169,0.83 2.564,1.912 0.395,1.082 0.304,2.273 0.208,3.422 0.083,-1.313 1.374,-2.388 2.679,-2.324 1.305,0.064 2.452,1.169 2.681,2.465 0.229,1.295 -0.408,2.674 -1.478,3.43"
   id="path16" />
			<path
   style="fill:#ffffff;stroke:#000000;stroke-width:2;stroke-linecap:round;stroke-linejoin:round;stroke-miterlimit:10"
   d="m 229.349,425.486 c 0.822,-0.596 1.663,-1.214 2.211,-2.072 0.547,-0.859 0.74,-2.028 0.205,-2.894 -0.68,-1.103 -2.282,-1.289 -3.458,-0.76 -1.176,0.529 -2.025,1.582 -2.828,2.597 0.432,-2.064 -1.703,-4.208 -3.748,-3.764 -2.046,0.444 -3.117,3.283 -1.881,4.985 -0.829,-1.654 -3.373,-2.063 -4.672,-0.752 -1.299,1.311 -0.889,3.875 0.753,4.708"
   id="path17" />
			<path
   style="fill:#ffffff;stroke:#000000;stroke-width:2;stroke-linecap:round;stroke-linejoin:round;stroke-miterlimit:10"
   d="m 413.142,439.231 c 1.005,-0.144 2.038,-0.298 2.922,-0.802 0.884,-0.504 1.6,-1.448 1.531,-2.465 -0.088,-1.293 -1.417,-2.205 -2.705,-2.285 -1.287,-0.08 -2.529,0.455 -3.713,0.979 1.345,-1.624 0.456,-4.516 -1.56,-5.078 -2.016,-0.562 -4.288,1.45 -3.989,3.532 0.038,-1.85 -2.021,-3.398 -3.782,-2.844 -1.761,0.554 -2.593,3.013 -1.529,4.516"
   id="path18" />
			<path
   style="fill:#ffffff;stroke:#000000;stroke-width:2;stroke-linecap:round;stroke-linejoin:round;stroke-miterlimit:10"
   d="m 146.418,452.488 c -1.404,-0.725 -2.871,-1.506 -3.728,-2.832 -0.857,-1.327 -0.822,-3.371 0.497,-4.24 0.945,-0.623 2.244,-0.448 3.217,0.13 0.973,0.578 1.691,1.492 2.387,2.385 -1.527,-1.75 -0.494,-4.989 1.764,-5.532 2.258,-0.543 4.65,1.872 4.086,4.125 0.292,-1.106 0.672,-2.329 1.673,-2.882 1.499,-0.828 3.449,0.518 3.892,2.172 0.442,1.654 -0.141,3.391 -0.717,5.003"
   id="path19" />
		</g>
	</g>
	<g
   id="g23">
		<path
   style="fill:#ffffff;stroke:#000000;stroke-linecap:round;stroke-linejoin:round;stroke-miterlimit:10"
   d="m 178.01,162.467 c 0,0 -131.284,0 -132.231,-0.494 -1.152,-6.181 0.759,-12.822 5.054,-17.561 4.294,-4.739 10.885,-7.48 17.427,-7.247 1.261,-13.441 13.995,-24.997 28.058,-25.463 14.063,-0.466 27.598,10.219 29.825,23.544 5.504,-2.432 12.843,0.349 15.128,5.732 6.788,-6.505 18.359,-7.775 26.504,-2.907 8.145,4.866 12.056,15.387 10.235,24.396 z"
   id="path20" />
		<path
   style="fill:#ffffff;stroke:#000000;stroke-linecap:round;stroke-linejoin:round;stroke-miterlimit:10"
   d="m 238.638,59.618 c 0,0 68.395,0 68.089,-0.228 1.465,-3.344 0.507,-7.537 -2.279,-9.973 -2.786,-2.436 -7.197,-2.938 -10.492,-1.193 -1.067,-6.745 -8.044,-12.098 -15.081,-11.569 -7.036,0.528 -13.075,6.858 -13.052,13.682 -1.651,-2.06 -4.646,-3.009 -7.238,-2.293 -2.591,0.716 -4.616,3.052 -4.891,5.644 -2.542,-2.558 -6.705,-3.469 -10.138,-2.216 -3.432,1.251 -5.936,4.594 -4.918,8.146 z"
   id="path21" />
		<path
   style="fill:#ffffff;stroke:#000000;stroke-linecap:round;stroke-linejoin:round;stroke-miterlimit:10"
   d="m 151.316,292.521 c 0,0 -57.492,0 -57.234,-0.192 -1.231,-2.811 -0.426,-6.336 1.916,-8.383 2.342,-2.047 6.05,-2.469 8.819,-1.003 0.897,-5.67 6.762,-10.169 12.677,-9.725 5.915,0.444 10.991,5.765 10.972,11.501 1.387,-1.731 3.906,-2.529 6.084,-1.927 2.178,0.602 3.88,2.566 4.112,4.744 2.137,-2.151 5.636,-2.916 8.522,-1.863 2.884,1.053 4.989,3.862 4.132,6.848 z"
   id="path22" />
		<path
   style="fill:#ffffff;stroke:#000000;stroke-linecap:round;stroke-linejoin:round;stroke-miterlimit:10"
   d="m 454.674,200.984 c 0,0 -114.64,0 -114.878,-0.587 3.823,-10.812 18.698,-15.87 28.32,-9.631 -4.651,-10.964 2.693,-25.266 14.313,-27.874 11.62,-2.609 24.373,7.182 24.854,19.081 3.087,-2.214 8.102,-0.699 9.448,2.853 5.99,-5.33 15.138,-6.796 22.494,-3.606 7.358,3.191 12.538,10.872 15.449,19.764 z"
   id="path23" />
	</g>
	<g
   id="g66">
		<g
   id="g27">
			<path
   style="fill:#ffffff;stroke:#000000;stroke-width:2;stroke-linecap:round;stroke-linejoin:round;stroke-miterlimit:10"
   d="m 276.149,284.165 c 24.046,-1.644 50.833,-11.055 76.394,-21.693 12.353,-5.142 17.971,10.784 9.024,22.436 -22.354,29.111 -64.513,40.183 -86.988,45.924 0.11,-12.765 0.219,-32.084 1.57,-46.667 z"
   id="path24" />
			<path
   style="fill:#ffffff;stroke:#000000;stroke-width:2;stroke-linecap:round;stroke-linejoin:round;stroke-miterlimit:10"
   d="m 339.695,280.91 c -1.269,-2.976 0.803,-6.747 4.628,-8.421 3.825,-1.674 7.955,-0.619 9.224,2.357 1.269,2.976 -0.803,6.747 -4.628,8.421 -3.825,1.675 -7.955,0.62 -9.224,-2.357 z"
   id="path25" />
			<path
   style="fill:none;stroke:#000000;stroke-width:2;stroke-linecap:round;stroke-linejoin:round;stroke-miterlimit:10"
   d="m 354.501,267.372 c 2.129,-1.442 4.855,-2.318 7.647,-2.457"
   id="path26" />
			<path
   style="fill:none;stroke:#000000;stroke-width:2;stroke-linecap:round;stroke-linejoin:round;stroke-miterlimit:10"
   d="m 358.324,275.579 c 1.687,-1.942 3.993,-3.323 6.485,-3.886"
   id="path27" />
		</g>
		<g
   id="g36">
			<path
   style="fill:#ffffff;stroke:#000000;stroke-width:2;stroke-linecap:round;stroke-linejoin:round;stroke-miterlimit:10"
   d="m 256.733,389.828 c -5.823,-0.275 -11.704,1.489 -16.477,5.085 -2.757,2.077 -3.676,5.785 -2.201,8.895 4.104,8.652 10.425,18.658 17.607,26.201 2.423,2.545 5.645,4.186 9.122,4.764 16.668,2.771 39.266,2.62 40.334,-0.468 2.869,-8.299 -2.851,-18.806 -20.156,-19.628 -4.026,-3.537 -6.997,-8.113 -8.495,-13.085"
   id="path28" />
			<path
   style="fill:none;stroke:#000000;stroke-width:2;stroke-linecap:round;stroke-linejoin:round;stroke-miterlimit:10"
   d="m 287.493,436.45 c 1.388,-4.621 -0.846,-10.057 -5.093,-12.39"
   id="path29" />
			<path
   style="fill:none;stroke:#000000;stroke-width:2;stroke-linecap:round;stroke-linejoin:round;stroke-miterlimit:10"
   d="m 299.728,435.992 c 0.671,-4.931 -1.377,-10.144 -5.234,-13.318"
   id="path30" />
			<g
   id="g31">
				
					<path
   style="fill:#ffffff;stroke:#000000;stroke-width:2;stroke-linecap:round;stroke-linejoin:round;stroke-miterlimit:10"
   d="m 270.067,409.577 c 41.724,-4.832 33.425,-40.804 17.901,-73.821 -0.238,-0.506 -0.351,-1.058 -0.33,-1.616 0.689,-18.722 -1.152,-38.658 -3.958,-55.407 -12.036,-0.59 -26.952,-1.879 -45.361,-6.017 -14.104,16.617 -28.205,33.24 -42.097,50.389 -18.813,13.318 -40.38,29.124 -24.535,64.668 l 23.967,19.94 c 2.767,-6.835 7.546,-15.418 12.942,-20.55 7.564,-7.193 14.634,-8.772 23.002,-9.826 4.344,4.177 7.753,8.89 11.601,17.342"
   id="path31" />
			</g>
			<g
   id="g35">
				
					<path
   style="fill:#ffffff;stroke:#000000;stroke-width:2;stroke-linecap:round;stroke-linejoin:round;stroke-miterlimit:10"
   d="m 194.964,405.613 c 4.132,11.042 0.078,21.059 -8.339,18.34 -19.297,-6.232 -55.477,-41.516 -51.061,-50.737 3.423,-7.148 13.261,-8.035 26.36,-1.957 5.355,2.485 16.755,10.864 21.447,18.642"
   id="path32" />
				
					<path
   style="fill:#ffffff;stroke:#000000;stroke-width:2;stroke-linecap:round;stroke-linejoin:round;stroke-miterlimit:10"
   d="m 165.615,406.497 c -4.827,-3.881 -7.593,-8.384 -6.177,-10.057 1.415,-1.673 6.476,0.116 11.303,3.997 4.827,3.881 7.593,8.384 6.178,10.057 -1.416,1.674 -6.476,-0.116 -11.304,-3.997 z"
   id="path33" />
				<path
   style="fill:none;stroke:#000000;stroke-width:2;stroke-linecap:round;stroke-linejoin:round;stroke-miterlimit:10"
   d="m 153.078,380.717 c -2.023,-2.256 -3.813,-4.711 -5.133,-7.526 -0.878,-1.873 -0.154,-4.176 1.732,-5.103 0.013,-0.006 0.026,-0.013 0.039,-0.019"
   id="path34" />
				<path
   style="fill:none;stroke:#000000;stroke-width:2;stroke-linecap:round;stroke-linejoin:round;stroke-miterlimit:10"
   d="m 145.495,386.176 c -2.805,-2.514 -5.044,-5.624 -6.563,-9.347 -0.788,-1.933 -0.707,-4.13 0.388,-5.915 0.684,-1.115 1.58,-2.107 2.638,-2.897"
   id="path35" />
			</g>
		</g>
		<g
   id="g53">
			<g
   id="g51">
				<g
   id="g50">
					
						<path
   style="fill:#ffffff;stroke:#000000;stroke-width:2;stroke-linecap:round;stroke-linejoin:round;stroke-miterlimit:10"
   d="m 331.93,252.796 c 1.908,33.464 -31.872,41.215 -74.852,33.282 -41.287,-7.621 -69.207,-26.906 -59.484,-55.653 6.857,-20.275 39.969,-75.196 82.083,-67.423 42.978,7.931 51.313,73.302 52.253,89.794 z"
   id="path36" />
					<g
   id="g38">
						
							<path
   style="fill:#ffffff;stroke:#000000;stroke-width:2;stroke-linecap:round;stroke-linejoin:round;stroke-miterlimit:10"
   d="m 264.151,163.616 c -6.07,-48.696 -13.618,-82.382 -49.176,-111.48 -4.994,-8.909 -9.828,-13.397 -13.197,-12.83 -5.093,0.856 -5.609,7.363 -5.889,11.937 -2.546,41.685 11.951,100.025 40.702,127.027"
   id="path37" />
						
							<path
   style="fill:#ffffff;stroke:#000000;stroke-width:2;stroke-linecap:round;stroke-linejoin:round;stroke-miterlimit:10"
   d="m 246.963,175.466 c -8.369,-20.344 -6.142,-29.888 -8.18,-55.297 -1.837,-22.902 -18.984,-50.055 -37.007,-63.068 1.564,42.548 16.929,84.481 45.187,118.365 z"
   id="path38" />
					</g>
					<g
   id="g40">
						
							<path
   style="fill:#ffffff;stroke:#000000;stroke-width:2;stroke-linecap:round;stroke-linejoin:round;stroke-miterlimit:10"
   d="m 282.513,167.573 c 5.567,-48.756 12.767,-82.518 48.023,-111.981 4.901,-8.96 9.689,-13.497 13.064,-12.966 5.101,0.804 5.685,7.305 6.012,11.875 2.977,41.656 -14.125,101.2 -42.595,128.497"
   id="path39" />
						
							<path
   style="fill:#ffffff;stroke:#000000;stroke-width:2;stroke-linecap:round;stroke-linejoin:round;stroke-miterlimit:10"
   d="m 299.822,179.245 c 8.159,-20.43 5.833,-29.95 7.609,-55.379 1.6,-22.919 18.467,-50.248 36.354,-63.447 -1.124,42.564 -16.056,84.653 -43.963,118.826 z"
   id="path40" />
					</g>
					<g
   id="g44">
						<g
   id="g41">
							
								<ellipse
   transform="rotate(-67.368676,302.88718,245.47518)"
   cx="302.87201"
   cy="245.474"
   rx="12.733"
   ry="10.675"
   id="ellipse40" />
							<path
   style="fill:#ffffff"
   d="m 298.151,239.35 c 1.991,-2.501 5.046,-3.38 6.825,-1.965 1.778,1.416 1.606,4.591 -0.385,7.092 -1.991,2.501 -5.047,3.381 -6.825,1.965 -1.778,-1.416 -1.606,-4.591 0.385,-7.092 z"
   id="path41" />
						</g>
						<g
   id="g43">
							<path
   d="m 218.19,232.573 c -0.503,-7.014 3.855,-13.043 9.736,-13.465 5.881,-0.422 11.056,4.922 11.56,11.936 0.504,7.014 -3.855,13.043 -9.736,13.465 -5.881,0.423 -11.057,-4.921 -11.56,-11.936 z"
   id="path42" />
							<path
   style="fill:#ffffff"
   d="m 221.867,228.464 c 0.653,-3.129 2.986,-5.289 5.211,-4.825 2.225,0.464 3.5,3.377 2.847,6.507 -0.653,3.13 -2.986,5.289 -5.211,4.825 -2.226,-0.465 -3.5,-3.378 -2.847,-6.507 z"
   id="path43" />
						</g>
					</g>
					<g
   id="g49">
						
							<path
   style="fill:#ffffff;stroke:#000000;stroke-width:2;stroke-linecap:round;stroke-linejoin:round;stroke-miterlimit:10"
   d="m 246.676,247.088 c -7.867,39.55 30.392,45.919 33.881,5.747"
   id="path44" />
						
							<path
   style="fill:#ffffff;stroke:#000000;stroke-width:2;stroke-linecap:round;stroke-linejoin:round;stroke-miterlimit:10"
   d="m 255.049,251.861 c -0.387,3.292 -0.143,6.657 0.952,10.542 3.391,0.909 6.898,1.382 10.677,1.325 1.645,-2.948 2.919,-6.102 3.785,-9.365"
   id="path45" />
						
							<path
   style="fill:#ffffff;stroke:#000000;stroke-width:2;stroke-linecap:round;stroke-linejoin:round;stroke-miterlimit:10"
   d="m 245.76,245.796 c 1.552,2.572 4.077,4.541 6.95,5.42 2.873,0.879 6.067,0.661 10.199,-0.706 2.342,2.615 5.724,4.272 9.225,4.518 3.502,0.247 7.083,-0.919 9.768,-3.18"
   id="path46" />
						
							<path
   style="fill:#ffffff;stroke:#000000;stroke-width:2;stroke-linecap:round;stroke-linejoin:round;stroke-miterlimit:10"
   d="m 264.347,239.776 c -0.48,3.57 -0.961,7.14 -1.442,10.71"
   id="path47" />
						
							<path
   style="fill:#ffffff;stroke:#000000;stroke-width:2;stroke-linecap:round;stroke-linejoin:round;stroke-miterlimit:10"
   d="m 255.21,235.961 c 0.6,-3.252 5.437,-5.085 10.802,-4.095 5.366,0.99 9.229,4.429 8.629,7.681 -0.6,3.252 -10.802,4.095 -10.802,4.095 0,0 -9.229,-4.429 -8.629,-7.681 z"
   id="path48" />
						
							<path
   style="fill:#ffffff;stroke:#000000;stroke-width:2;stroke-linecap:round;stroke-linejoin:round;stroke-miterlimit:10"
   d="m 245.76,279.98 c 2.447,3.239 6.438,5.707 10.872,6.722 4.433,1.015 9.257,0.566 13.14,-1.223"
   id="path49" />
					</g>
				</g>
				
					<path
   style="fill:#ffffff;stroke:#000000;stroke-width:2;stroke-linecap:round;stroke-linejoin:round;stroke-miterlimit:10"
   d="m 266.262,163.152 c 3.414,-2.234 4.899,-6.383 6.787,-10 1.888,-3.618 5.104,-7.294 9.174,-7.008 2.379,0.167 4.583,1.854 5.365,4.107 0.782,2.253 0.099,4.942 -1.665,6.548 3.793,-1.663 8.785,0.585 10.053,4.528 1.268,3.943 -1.477,8.68 -5.529,9.54 2.112,1.57 2.726,4.829 1.329,7.06 -1.397,2.231 -4.596,3.103 -6.932,1.889"
   id="path50" />
			</g>
			<g
   id="g52">
				<path
   style="fill:none;stroke:#000000;stroke-linecap:round;stroke-linejoin:round;stroke-miterlimit:10"
   d="m 330.492,252.467 c -8.767,-3.122 -19.354,-0.138 -25.2,7.104 -5.846,7.242 -6.53,18.22 -1.629,26.132"
   id="path51" />
				<path
   style="fill:none;stroke:#000000;stroke-linecap:round;stroke-linejoin:round;stroke-miterlimit:10"
   d="m 197.768,227.873 c 9.415,0.26 18.394,6.53 21.883,15.279 3.489,8.749 1.286,19.477 -5.368,26.144"
   id="path52" />
			</g>
		</g>
		<g
   id="g65">
			<g
   id="g62">
				<g
   id="g54">
					
						<path
   style="fill:#ffffff;stroke:#000000;stroke-width:2;stroke-linecap:round;stroke-linejoin:round;stroke-miterlimit:10"
   d="m 192.045,255.512 c -2.26,-8.84 -4.52,-17.681 -6.78,-26.521 -0.567,-2.219 -1.16,-4.495 -2.449,-6.331 -1.288,-1.836 -3.449,-3.157 -5.578,-2.704 -2.128,0.453 -3.779,3.173 -2.789,5.21 -0.174,-3.79 -0.374,-7.696 -1.914,-11.097 -1.539,-3.401 -4.777,-6.204 -8.33,-5.885 -3.553,0.319 -6.582,4.793 -4.906,8.119 -2.025,-6.644 -6.798,-12.242 -12.805,-15.018 -1.998,-0.923 -4.209,-1.551 -6.368,-1.136 -2.159,0.416 -4.227,2.086 -4.672,4.377 -0.445,2.291 1.256,4.917 3.443,4.792 -5.917,-3.884 -13.08,-5.595 -20.04,-4.787 -2.394,0.278 -5.209,1.274 -5.803,3.768 -0.638,2.681 1.733,4.971 3.884,6.469 6.951,4.841 14.427,8.832 22.24,11.874 -1.246,-1.523 -3.599,-1.835 -5.191,-0.69 -1.592,1.145 -2.213,3.599 -1.371,5.412 1.021,2.199 3.545,2.971 5.793,3.521 5.703,1.396 11.407,2.791 17.11,4.187 -1.767,-0.312 -3.626,-0.565 -5.325,0.078 -1.699,0.643 -3.154,2.469 -2.851,4.351 0.357,2.216 2.715,3.244 4.75,3.826 5.623,1.606 11.371,2.735 17.173,3.372 -1.423,-1.598 -4.339,-0.17 -4.691,2.022 -0.351,2.192 1.225,4.287 3.134,5.142 1.909,0.854 4.069,0.761 6.148,0.654 5.533,-0.288 11.064,-0.574 18.188,-3.005 z"
   id="path53" />
					<path
   style="fill:none;stroke:#000000;stroke-width:2;stroke-linecap:round;stroke-linejoin:round;stroke-miterlimit:10"
   d="m 152.518,223.825 c 14.152,7.004 26.669,17.497 36.24,30.378"
   id="path54" />
				</g>
				<g
   id="g61">
					
						<path
   style="fill:#ffffff;stroke:#000000;stroke-width:2;stroke-linecap:round;stroke-linejoin:round;stroke-miterlimit:10"
   d="m 184.074,281.842 c -17.617,-16.694 18.001,-44.101 32.754,-30.979 20.759,18.463 43.038,95.586 31.328,99.56 -9.859,3.346 -38.872,-44.69 -64.082,-68.581 z"
   id="path55" />
					<g
   id="g60">
						<path
   style="fill:none;stroke:#000000;stroke-width:2;stroke-linecap:round;stroke-linejoin:round;stroke-miterlimit:10"
   d="m 223.262,257.927 c -5.732,-0.342 -11.552,2.483 -14.83,7.197"
   id="path56" />
						<path
   style="fill:none;stroke:#000000;stroke-width:2;stroke-linecap:round;stroke-linejoin:round;stroke-miterlimit:10"
   d="m 192.979,263.572 c -4.923,4.337 -8.307,10.388 -9.425,16.853"
   id="path57" />
						<path
   style="fill:none;stroke:#000000;stroke-width:2;stroke-linecap:round;stroke-linejoin:round;stroke-miterlimit:10"
   d="m 225.934,287.136 c 3.328,-2.129 7.319,-3.206 11.266,-3.041"
   id="path58" />
						<path
   style="fill:none;stroke:#000000;stroke-width:2;stroke-linecap:round;stroke-linejoin:round;stroke-miterlimit:10"
   d="m 216.383,318.548 c 2.157,-6.531 8.804,-11.297 15.682,-11.244"
   id="path59" />
						<path
   style="fill:none;stroke:#000000;stroke-width:2;stroke-linecap:round;stroke-linejoin:round;stroke-miterlimit:10"
   d="m 249.091,329.792 c -3.926,-1.759 -8.86,-0.97 -12.042,1.924"
   id="path60" />
					</g>
				</g>
			</g>
			<g
   id="g64">
				
					<path
   style="fill:#ffffff;stroke:#000000;stroke-width:2;stroke-linecap:round;stroke-linejoin:round;stroke-miterlimit:10"
   d="m 187.725,326.509 c -12.829,-2.399 -22.501,-21.037 -11.857,-32.345 9.343,-9.926 35.83,-12.578 41.119,-1.812 5.135,10.452 -15.283,36.771 -29.262,34.157 z"
   id="path62" />
				<path
   style="fill:none;stroke:#000000;stroke-width:2;stroke-linecap:round;stroke-linejoin:round;stroke-miterlimit:10"
   d="m 196.555,291.837 c 4.905,-2.64 10.536,-3.913 16.1,-3.638"
   id="path63" />
				<path
   style="fill:none;stroke:#000000;stroke-width:2;stroke-linecap:round;stroke-linejoin:round;stroke-miterlimit:10"
   d="m 205.031,302.494 c 4.71,-1.792 8.911,-4.898 12.006,-8.874"
   id="path64" />
			</g>
		</g>
	</g>
</g>
</svg>
